HIERARCHY
ROOT Hips
{
	OFFSET 0.000000 88.474243 0.000000
	CHANNELS 6 Xposition Yposition Zposition Zrotation Yrotation Xrotation 
	JOINT Hips_Spine
	{
		OFFSET 0.000000 0.000000 0.000000
		CHANNELS 3 Zrotation Yrotation Xrotation
		JOINT Spine
		{
			OFFSET 0.005100 8.711998 -0.691000
			CHANNELS 3 Zrotation Yrotation Xrotation
			JOINT Spine1
			{
				OFFSET -0.009200 8.660301 -1.275000
				CHANNELS 3 Zrotation Yrotation Xrotation
				JOINT Spine2
				{
					OFFSET 0.006300 9.852501 -1.857000
					CHANNELS 3 Zrotation Yrotation Xrotation
					JOINT Spine2_Neck
					{
						OFFSET 0.000000 0.000000 0.000000
						CHANNELS 3 Zrotation Yrotation Xrotation
						JOINT Neck
						{
							OFFSET 0.016300 11.420799 -0.263300
							CHANNELS 3 Zrotation Yrotation Xrotation
							End Site #name: Head
							{
								OFFSET -0.019200 9.262405 2.362500
							}
						}
					}
					JOINT Spine2_LeftShoulder
					{
						OFFSET 0.000000 0.000000 0.000000
						CHANNELS 3 Zrotation Yrotation Xrotation
						JOINT LeftShoulder
						{
							OFFSET 5.616900 6.732201 -0.345700
							CHANNELS 3 Zrotation Yrotation Xrotation
							JOINT LeftArm
							{
								OFFSET 10.664888 -0.183372 -2.440700
								CHANNELS 3 Zrotation Yrotation Xrotation
								JOINT LeftForeArm
								{
									OFFSET 27.459126 0.000000 0.000000
									CHANNELS 3 Zrotation Yrotation Xrotation
									End Site #name: LeftHand
									{
										OFFSET 21.306858 0.000000 0.000000
									}
								}
							}
						}
					}
					JOINT Spine2_RightShoulder
					{
						OFFSET 0.000000 0.000000 0.000000
						CHANNELS 3 Zrotation Yrotation Xrotation
						JOINT RightShoulder
						{
							OFFSET -5.580300 6.737503 -0.344400
							CHANNELS 3 Zrotation Yrotation Xrotation
							JOINT RightArm
							{
								OFFSET -10.679335 -0.188484 -2.383900
								CHANNELS 3 Zrotation Yrotation Xrotation
								JOINT RightForeArm
								{
									OFFSET -27.503529 0.000000 0.000000
									CHANNELS 3 Zrotation Yrotation Xrotation
									End Site #name: RightHand
									{
										OFFSET -21.306808 0.000000 0.000000
									}
								}
							}
						}
					}
				}
			}
		}
	}
	JOINT Hips_LeftUpLeg
	{
		OFFSET 0.000000 0.000000 0.000000
		CHANNELS 3 Zrotation Yrotation Xrotation
		JOINT LeftUpLeg
		{
			OFFSET 6.857700 -6.739601 0.312100
			CHANNELS 3 Zrotation Yrotation Xrotation
			JOINT LeftLeg
			{
				OFFSET -0.367590 -34.731552 -4.572400
				CHANNELS 3 Zrotation Yrotation Xrotation
				End Site #name: LeftFoot
				{
					OFFSET 0.367590 -34.656704 -6.067400
				}
			}
		}
	}
	JOINT Hips_RightUpLeg
	{
		OFFSET 0.000000 0.000000 0.000000
		CHANNELS 3 Zrotation Yrotation Xrotation
		JOINT RightUpLeg
		{
			OFFSET -6.876100 -6.733299 0.301000
			CHANNELS 3 Zrotation Yrotation Xrotation
			JOINT RightLeg
			{
				OFFSET 0.347353 -34.795158 -4.515900
				CHANNELS 3 Zrotation Yrotation Xrotation
				End Site #name: RightFoot
				{
					OFFSET -0.347353 -34.589367 -6.070300
				}
			}
		}
	}
}
MOTION
Frames: 7
Frame Time: 0.041667
0.188635 0.044850 -0.027558 1.389518 19.278716 -6.323355 -0.000000 0.000000 0.000000 -0.250308 -1.767459 0.439716 0.192363 -1.466679 -1.521119 0.000000 0.000000 0.000000 -0.095271 -0.906576 -1.873487 4.052986 0.481669 -4.762608 0.298098 -1.755451 -2.669671 -16.574420 -5.199341 1.733256 -46.804292 -1.410366 9.508258 -0.458432 -33.933413 6.064991 0.139619 -1.205955 -0.770151 13.032159 10.932425 4.518389 57.108927 -6.731307 -5.323551 -0.669856 51.963255 0.616691 0.000000 0.000000 0.000000 -10.593335 19.530623 -4.981400 -1.908911 -2.325536 23.310410 0.000000 0.000000 0.000000 -5.594127 17.375308 -9.451139 8.429054 2.596177 -2.033967 
0.798702 -0.035196 0.107562 3.396043 19.220537 -6.723094 -0.000000 0.000000 0.000000 -2.440982 -2.511107 -0.223115 0.418360 -1.592080 -1.770528 0.000000 0.000000 0.000000 -0.035338 -0.872971 -3.007764 4.484231 -1.785505 -2.672733 -0.262990 -1.610648 -3.748141 -21.782445 -2.460798 0.276978 -44.298838 -0.784235 -2.246786 -0.997192 -27.942508 3.950724 -0.035603 -1.522354 -1.118175 13.445682 8.109697 1.765507 59.820333 -1.789621 -6.771339 -0.703110 53.826187 -0.931588 0.000000 0.000000 -0.000000 -13.921517 17.001801 -1.773872 -0.672595 1.522430 20.792745 0.000000 0.000000 0.000000 -9.764233 20.281038 -10.129780 9.101854 2.919947 -0.190857 
1.151531 -0.074693 0.116454 4.994661 16.833016 -6.891337 -0.000000 0.000000 -0.000000 -3.964214 -3.732543 -0.077850 0.401334 -1.437821 -1.841914 0.000000 0.000000 0.000000 0.522586 -1.342684 -2.968284 3.642975 -2.999749 -2.884838 -0.560129 -1.602236 -3.394591 -24.958653 -1.983007 1.648824 -45.148182 4.136743 -6.263912 -1.428397 -28.331000 3.946375 0.037241 -1.539322 -1.044232 12.608266 7.259334 1.969869 58.826664 0.345378 -5.278585 -0.284783 48.586496 -0.746167 0.000000 0.000000 -0.000000 -16.027780 16.817031 0.357226 -1.099852 2.033556 18.750794 0.000000 0.000000 0.000000 -12.251717 21.808091 -13.636623 8.624320 1.508959 6.539881 
1.436095 -0.099677 0.055896 5.763370 14.809229 -6.842547 -0.000000 0.000000 -0.000000 -5.422750 -3.475232 1.017274 0.400232 -1.383135 -1.751568 0.000000 0.000000 0.000000 0.704240 -1.512945 -2.825748 3.507770 -4.417036 -2.184409 -0.507097 -1.615719 -3.164974 -25.975133 -1.957365 3.035910 -44.180665 5.274836 -5.577569 -1.028362 -27.290753 6.360096 0.126553 -1.563665 -0.933294 11.493887 7.326261 1.902517 58.223022 3.410205 -3.661832 -0.125172 49.442539 -0.655021 0.000000 0.000000 -0.000000 -17.070931 17.145997 0.922939 -1.319978 2.771740 18.049886 0.000000 0.000000 0.000000 -14.107690 21.449512 -17.213583 8.309596 1.258447 14.301507 
1.767443 -0.106269 -0.019166 6.062960 14.202526 -6.524870 -0.000000 0.000000 -0.000000 -6.396526 -2.933199 1.206350 0.311676 -1.352777 -1.717643 0.000000 0.000000 0.000000 0.492353 -1.634553 -2.886282 3.384981 -5.489991 -1.779235 -0.555355 -1.754665 -3.077556 -27.417182 -1.707913 4.181814 -41.669340 5.622962 -5.363676 -0.430963 -23.612878 8.454596 0.098713 -1.576009 -0.919160 9.615882 7.525042 1.717831 58.792939 4.782226 -3.314422 -0.087903 51.366194 -0.772083 0.000000 0.000000 -0.000000 -17.717156 17.662773 1.119244 -1.577998 2.946554 17.487621 0.000000 0.000000 0.000000 -15.497450 20.516789 -19.454516 8.124701 1.498885 19.734006 
2.132682 -0.099642 -0.099167 6.116704 13.908293 -6.323062 -0.000000 0.000000 -0.000000 -6.665055 -2.578898 0.594308 0.130164 -1.324801 -1.748802 0.000000 0.000000 0.000000 0.137645 -1.701668 -3.048083 3.107769 -5.975703 -1.558740 -0.747438 -1.839159 -3.166318 -29.409352 -0.956325 4.768809 -39.526798 5.622238 -4.772086 0.090369 -19.280384 9.888578 -0.028045 -1.636040 -1.038353 7.833351 7.639765 1.519736 60.294921 4.528626 -4.168481 0.071344 51.562677 -0.785944 0.000000 0.000000 -0.000000 -18.065866 18.187154 0.983183 -1.534827 3.113125 17.252493 0.000000 0.000000 0.000000 -16.359869 19.450827 -20.360566 8.005898 2.064235 22.866979 
2.510106 -0.084287 -0.177410 6.007056 13.949200 -6.203996 -0.000000 0.000000 -0.000000 -6.343332 -2.274029 -0.196076 -0.112404 -1.272082 -1.900776 0.000000 0.000000 0.000000 -0.190632 -1.700077 -3.183356 2.830644 -6.251024 -1.365709 -1.006828 -1.823937 -3.337635 -31.366309 -0.032308 4.961246 -37.672666 5.662179 -4.150199 0.452038 -14.839929 10.509521 -0.282764 -1.629146 -1.188696 6.727327 7.648128 1.391083 62.143155 3.400673 -6.170242 0.277637 50.617816 -0.753323 0.000000 0.000000 -0.000000 -18.210098 18.473631 0.635616 -1.493608 3.240813 17.283059 0.000000 0.000000 0.000000 -16.973668 18.284588 -20.499592 7.731660 2.339841 24.605473 
